<svg xmlns="http://www.w3.org/2000/svg" t="1710837239616" class="icon" viewBox="0 0 1024 1024" version="1.1" p-id="15201" width="54" height="54">  
  <path d="M950.857143 0a73.142857 73.142857 0 0 1 73.142857 73.142857v877.714286a73.142857 73.142857 0 0 1-73.142857 73.142857H73.142857a73.142857 73.142857 0 0 1-73.142857-73.142857V73.142857a73.142857 73.142857 0 0 1 73.142857-73.142857h877.714286z" fill="#00A6AB" p-id="15202"/>  
  <path d="M512.438857 219.721143a290.596571 290.596571 0 1 0 0 581.193143 290.596571 290.596571 0 0 0 0-581.193143z m101.888 314.587428s-40.301714 3.291429-30.939428-30.72c-1.389714-10.020571 49.005714-33.206857 42.422857-65.170285-10.752-38.034286-72.777143-49.078857-88.868572-1.316572V588.068571c0.658286 21.211429-41.398857 90.770286-128.292571 61.44 0 0-58.075429-24.722286-54.857143-87.04 2.56-28.306286 29.257143-62.902857 59.318857-74.313142 33.353143-9.362286 45.641143 23.771429 30.939429 38.4-10.678857 5.339429-76.434286 32.768-30.939429 76.8 24.722286 24.722286 66.121143 9.142857 76.068572-14.628572 1.316571-16.676571 1.316571-137.728 1.316571-154.331428 0-16.749714 49.517714-105.764571 139.922286-55.149715 0 0 101.741714 59.245714-16.091429 155.062857z" fill="#FFFFFF" p-id="15203"/> 
</svg>
