<svg xmlns="http://www.w3.org/2000/svg" t="1711100047442" class="icon" viewBox="0 0 1024 1024" version="1.1" p-id="35625" width="32" height="32">  
  <path d="M426.666667 810.666667a21.333333 21.333333 0 0 0-21.333334 21.333333v106.666667a21.333333 21.333333 0 0 0 42.666667 0v-106.666667a21.333333 21.333333 0 0 0-21.333333-21.333333zM512 810.666667a21.333333 21.333333 0 0 0-21.333333 21.333333v170.666667a21.333333 21.333333 0 0 0 42.666666 0v-170.666667a21.333333 21.333333 0 0 0-21.333333-21.333333zM607.146667 725.333333h-190.293334a21.333333 21.333333 0 1 0 0 42.666667h190.293334a21.333333 21.333333 0 1 0 0-42.666667zM597.333333 810.666667a21.333333 21.333333 0 0 0-21.333333 21.333333v64a21.333333 21.333333 0 0 0 42.666667 0v-64a21.333333 21.333333 0 0 0-21.333334-21.333333z" fill="#00bebd" p-id="35626"/>  
  <path d="M846.72 547.626667c-22.4-83.626667-75.946667-163.2-102.613333-245.76C687.146667 126.293333 545.92 0 512 0S336.853333 126.293333 279.893333 301.866667C253.226667 384 199.68 464 177.28 547.626667A192 192 0 0 0 273.28 768a36.266667 36.266667 0 0 0 50.773333-25.813333L334.293333 704a8.106667 8.106667 0 0 1 14.293334-2.56 7.893333 7.893333 0 0 0 6.4 2.986667h314.026666a7.893333 7.893333 0 0 0 6.4-2.986667 8.106667 8.106667 0 0 1 14.293334 2.56l10.24 37.973333A36.266667 36.266667 0 0 0 750.72 768a192 192 0 0 0 96-220.373333zM512 426.666667a106.666667 106.666667 0 1 1 106.666667-106.666667 106.666667 106.666667 0 0 1-106.666667 106.666667z" fill="#00bebd" p-id="35627"/> 
</svg>
