<svg xmlns="http://www.w3.org/2000/svg" t="1711704557744" class="icon" viewBox="0 0 1024 1024" version="1.1" p-id="70779" width="16" height="16">  
  <path d="M872.1 447.67l25.15 7.71C872.2 285.54 738.93 152.11 569.12 126.86l8.16 25.26c150.34 27.35 267.87 145.2 294.82 295.61M128.03 454.32l25.21-7.49c27.31-150.02 144.74-267.4 294.77-294.66l7.71-25.21c-169.27 25.32-302.2 158.12-327.69 327.36M446.44 870.71C297.52 843.02 181.03 726.49 153.4 577.56l-25.32-8.27c25.57 168.49 157.67 300.82 326.12 326.68l-7.76-25.26zM897.31 567.5l-25.21 8.16c-27.05 150.36-144.62 268.11-294.94 295.38L569 896.3c169.98-25.2 303.37-158.79 328.31-328.8" p-id="70780" fill="#00bebd"/>  
  <path d="M840.13 474.83l-178.35-57.96 57.01-110.55-111.11 56.62-57.4-179.19-23.58-73.05-14.08-45.94-15.31 47.12-22.36 73.05-56.39 178.35-111-56.95 56.84 111.11-178.18 56.28L112 496.08l-47.12 15.31L112 526.7l71.88 23.59L363.5 606.9l-57.06 110.72 110.55-58.29 56.73 179.74 22.36 73.05 15.31 46.89 15.31-47.12 23.59-73.05 57.74-180.3 110.78 58.01-56.9-110.22 177.06-57.23 73.05-23.59 47.12-15.31-45.94-12.97-73.07-22.4z m-8.38 51.87l-180.81 58.35-23.7-45.89a117.61 117.61 0 0 1-11.18 29.68l47.67 92.28-90.99-47.4a116.24 116.24 0 0 1-27.95 12.07l41.86 21.85-58.91 184.44-16.26 50.3-15.43-50.3-57.9-183.88 42.37-22.36a116.65 116.65 0 0 1-27.95-11.96l-91.05 48.01 47.73-92.67c-5.05-9.28-8.81-19.21-11.18-29.51l-23.59 45.77-183.32-57.62-49.41-15.98 51.64-15.65 181.81-57.51 23.19 45.33c2.52-10.2 6.41-20.02 11.57-29.17l-48.18-94.23 94.29 48.46c9.36-5.06 19.36-8.82 29.73-11.18l-46.17-23.7 57.74-182.37 14.98-48.85 15.54 47.95 58.46 182.82-47.23 24.09c10.39 2.34 20.42 6.11 29.79 11.18l95.46-48.62-48.85 95.01c5.02 9.2 8.78 19.03 11.18 29.23l23.98-46.45 182.54 59.13 45.77 14.03-47.24 15.32z" p-id="70781" fill="#00bebd"/>  
  <path d="M512.61 430.12c-45.56-0.03-82.52 36.88-82.55 82.44-0.03 45.56 36.88 82.52 82.44 82.55 45.52 0.03 82.46-36.81 82.55-82.33 0-45.56-36.93-82.49-82.49-82.49m0 141.4c-32.53-0.03-58.88-26.43-58.85-58.96 0.03-32.53 26.43-58.88 58.96-58.85 32.51 0.03 58.85 26.4 58.85 58.91 0 32.53-26.37 58.91-58.91 58.91h-0.05z" p-id="70782" fill="#00bebd"/>
</svg>
