<svg
                        t="1712654470376"
                        class="icon"
                        viewBox="0 0 1024 1024"
                        version="1.1"
                        xmlns="http://www.w3.org/2000/svg"
                        p-id="76090"
                        width="24"
                        height="24"
                    >
                        <path
                            d="M858.816 641.408c-55.68 0-115.84 20.48-170.24 39.68a244.48 244.48 0 0 1-176 74.88c-7.68 0-15.36-0.64-22.4-1.28-9.6 14.08-15.36 31.36-16 49.92 1.28 51.2 42.24 90.88 93.44 90.88 65.92 0 186.88 72.32 291.2 72.32a169.152 169.152 0 0 0 165.76-163.2 169.152 169.152 0 0 0-165.76-163.2z m-0.64 281.6c-50.56 0-109.44-21.12-161.92-39.68-49.28-17.28-92.16-32.64-128.64-32.64-27.52 0-48-20.48-48.64-47.36 0.64-24.32 21.12-44.8 48.64-44.8 36.48 0 79.36-15.36 128.64-32.64 52.48-18.56 112-39.68 162.56-39.68 64.64 1.28 118.4 54.4 120.96 119.68-2.56 62.72-55.68 115.2-121.6 117.12z"
                            fill="#00bebd"
                            p-id="76091"
                        ></path>
                        <path
                            d="M899.776 811.008c-0.64 26.24-22.4 48-49.28 47.36-26.88 0-48.64-22.4-48-49.28 0.64-26.88 22.4-48 49.28-48 26.88 0.64 48.64 23.04 48 49.92zM702.656 359.808c-16.64-19.84-35.84-37.12-56.96-51.2-10.88-53.76-23.04-113.28-48-156.16-35.2-55.68-107.52-74.24-162.56-44.16a123.264 123.264 0 0 0-27.52 184.32c-14.08 6.4-27.52 14.08-39.68 23.04-4.48-6.4-8.96-12.8-12.8-19.2-44.16-78.72-19.84-177.28 55.68-225.92 78.72-43.52 177.28-17.92 225.28 58.88 39.68 67.2 49.92 162.56 66.56 230.4z"
                            fill="#00bebd"
                            p-id="76092"
                        ></path>
                        <path
                            d="M528.576 258.688c-23.68 13.44-53.12 5.12-66.56-17.92a49.088 49.088 0 0 1 17.92-66.56c23.04-13.44 53.12-5.12 66.56 17.92 13.44 23.04 5.12 53.12-17.92 66.56z"
                            fill="#00bebd"
                            p-id="76093"
                        ></path>
                        <path
                            d="M359.616 702.208c-12.16 62.08-23.68 136.32-55.68 191.36a169.216 169.216 0 0 1-224.64 62.08 169.856 169.856 0 0 1-58.24-225.28c52.48-90.24 175.36-158.72 208.64-215.68 10.24-17.92 24.96-30.72 42.24-39.04-1.92 12.16-3.2 24.32-3.2 37.12 0 7.68 0.64 14.72 1.28 22.4-0.64 0.64-0.64 1.28-1.28 1.92-18.56 32-53.12 60.8-92.8 94.72-42.24 36.48-90.24 76.8-115.84 120.32-31.36 58.24-12.8 130.56 40.32 163.84 58.24 30.72 130.56 10.88 164.48-44.8 25.6-43.52 37.12-105.6 47.36-160 3.2-16.64 5.76-32.64 9.6-47.36 10.88 14.08 23.68 27.52 37.76 38.4z"
                            fill="#00bebd"
                            p-id="76094"
                        ></path>
                        <path
                            d="M203.456 827.648c-14.08 23.04-43.52 30.72-66.56 16.64a48.832 48.832 0 0 1-17.28-66.56c14.08-23.04 44.16-30.08 67.2-16.64 23.04 14.08 30.08 43.52 16.64 66.56z"
                            fill="#00bebd"
                            p-id="76095"
                        ></path>
                        <path
                            d="M512.256 320.512a192 192 0 1 0 0 384 192 192 0 0 0 0-384z m76.352 251.392a12.032 12.032 0 0 1-16.96 16.96l-59.392-59.392-59.392 59.392a11.968 11.968 0 0 1-17.024 0 12.032 12.032 0 0 1 0-16.96l59.392-59.392-59.392-59.456a12.032 12.032 0 0 1 16.96-16.96l59.392 59.392 59.392-59.392a12.032 12.032 0 0 1 16.96 16.96l-59.328 59.456 59.392 59.392z"
                            fill="#00bebd"
                            p-id="76096"
                        ></path>
                    </svg>
