<svg
                                    t="1712557132588"
                                    class="icon"
                                    viewBox="0 0 1024 1024"
                                    version="1.1"
                                    xmlns="http://www.w3.org/2000/svg"
                                    p-id="37884"
                                    width="24"
                                    height="24"
                                >
                                    <path
                                        d="M512 512m-469.333333 0a469.333333 469.333333 0 1 0 938.666666 0 469.333333 469.333333 0 1 0-938.666666 0Z"
                                        fill="#434A54"
                                        p-id="37885"
                                    ></path>
                                    <path
                                        d="M610.688 808.149333c0-12.074667 0.426667-51.498667 0.426667-100.437333 0-34.133333-11.733333-56.448-24.832-67.84 81.493333-9.045333 167.125333-39.978667 167.125333-180.608 0-39.936-14.208-72.618667-37.674667-98.261333 3.84-9.216 16.341333-46.421333-3.584-96.853334 0 0-30.72-9.813333-100.565333 37.546667a351.658667 351.658667 0 0 0-91.733333-12.373333 350.549333 350.549333 0 0 0-91.605334 12.373333c-69.973333-47.36-100.693333-37.546667-100.693333-37.546667-19.882667 50.432-7.338667 87.637333-3.541333 96.853334a141.653333 141.653333 0 0 0-37.717334 98.261333c0 140.288 85.461333 171.690667 166.784 180.906667-10.453333 9.173333-19.968 25.301333-23.253333 48.981333-20.906667 9.386667-73.856 25.514667-106.496-30.421333 0 0-19.370667-35.157333-56.149333-37.76 0 0-35.712-0.426667-2.474667 22.272 0 0 23.978667 11.264 40.618667 53.546666 0 0 21.504 65.365333 123.349333 43.221334 0.170667 30.592 0.512 59.392 0.512 68.138666a19.968 19.968 0 0 1-2.218667 9.173334 339.925333 339.925333 0 0 0 187.904 3.114666 19.2 19.2 0 0 1-4.181333-12.288z"
                                        fill="#FFFFFF"
                                        p-id="37886"
                                    ></path>
                                    <path
                                        d="M180.138667 843.861333A467.882667 467.882667 0 0 0 512 981.333333c259.2 0 469.333333-210.133333 469.333333-469.333333 0-129.621333-52.522667-246.954667-137.472-331.861333L180.138667 843.861333z"
                                        fill="#231F20"
                                        opacity=".1"
                                        p-id="37887"
                                    ></path>
                                </svg>
