<svg xmlns="http://www.w3.org/2000/svg" t="1710853513248" class="icon" viewBox="0 0 1024 1024" version="1.1" p-id="972" width="16" height="16">  
  <path d="M398.933333 202.666667v196.266666H198.4c-42.666667-2.133333-76.8-38.4-76.8-81.066666s34.133333-78.933333 76.8-81.066667h4.266667c21.333333 0 40.533333 8.533333 53.333333 21.333333-12.8-14.933333-21.333333-34.133333-21.333333-53.333333v-4.266667c2.133333-42.666667 38.4-76.8 81.066666-76.8s78.933333 34.133333 81.066667 76.8c0-2.133333 2.133333 0 2.133333 2.133334zM622.933333 202.666667v196.266666H823.466667c42.666667-2.133333 76.8-38.4 76.8-81.066666s-34.133333-78.933333-76.8-81.066667h-4.266667c-21.333333 0-40.533333 8.533333-53.333333 21.333333 12.8-14.933333 21.333333-34.133333 21.333333-53.333333v-4.266667c-2.133333-42.666667-38.4-76.8-81.066667-76.8s-78.933333 34.133333-81.066666 76.8c-2.133333-2.133333-2.133333 0-2.133334 2.133334zM622.933333 819.2v-196.266667H823.466667c42.666667 2.133333 76.8 38.4 76.8 81.066667s-34.133333 78.933333-76.8 81.066667h-4.266667c-21.333333 0-40.533333-8.533333-53.333333-21.333334 12.8 14.933333 21.333333 34.133333 21.333333 53.333334v4.266666c-2.133333 42.666667-38.4 76.8-81.066667 76.8s-78.933333-34.133333-81.066666-76.8c-2.133333 2.133333-2.133333 0-2.133334-2.133333zM405.333333 814.933333V618.666667H204.8c-42.666667 2.133333-76.8 38.4-76.8 81.066666s34.133333 78.933333 76.8 81.066667h4.266667c21.333333 0 40.533333-8.533333 53.333333-21.333333-12.8 14.933333-21.333333 34.133333-21.333333 53.333333v4.266667c2.133333 42.666667 38.4 76.8 81.066666 76.8s78.933333-34.133333 81.066667-76.8c2.133333 0 2.133333 0 2.133333-2.133334z" fill="#00bebd" p-id="973"/> 
</svg>
