<svg xmlns="http://www.w3.org/2000/svg" t="1710853095307" class="icon" viewBox="0 0 1024 1024" version="1.1" p-id="75610" width="16" height="16">  
  <path d="M200.533333 435.2H411.733333L275.2 298.666667c4.266667-4.266667 6.4-8.533333 6.4-14.933334 0-12.8-10.666667-21.333333-21.333333-21.333333-4.266667 0-8.533333 2.133333-12.8 4.266667 4.266667 8.533333 8.533333 14.933333 14.933333 21.333333-6.4-6.4-12.8-10.666667-21.333333-14.933333-10.666667-4.266667-23.466667-8.533333-36.266667-8.533334h-4.266667c-44.8 2.133333-81.066667 40.533333-81.066666 85.333334 0 46.933333 36.266667 83.2 81.066666 85.333333z" fill="#00bebd" p-id="75611"/>  
  <path d="M260.266667 307.2c6.4 0 12.8-2.133333 14.933333-6.4 4.266667-4.266667 6.4-8.533333 6.4-14.933333 0-12.8-10.666667-21.333333-21.333333-21.333334-4.266667 0-8.533333 2.133333-12.8 4.266667-2.133333 0-2.133333 2.133333-4.266667 2.133333-2.133333 2.133333-2.133333 2.133333-2.133333 4.266667-2.133333 4.266667-4.266667 6.4-4.266667 12.8 0 8.533333 10.666667 19.2 23.466667 19.2z" fill="#00bebd" p-id="75612"/>  
  <path d="M200.533333 435.2H411.733333L275.2 298.666667c4.266667-4.266667 6.4-8.533333 6.4-14.933334 0-12.8-10.666667-21.333333-21.333333-21.333333-4.266667 0-8.533333 2.133333-12.8 4.266667 4.266667 8.533333 8.533333 14.933333 14.933333 21.333333-6.4-6.4-12.8-10.666667-21.333333-14.933333-10.666667-4.266667-23.466667-8.533333-36.266667-8.533334h-4.266667c-44.8 2.133333-81.066667 40.533333-81.066666 85.333334 0 46.933333 36.266667 83.2 81.066666 85.333333z" fill="#00bebd" p-id="75613"/>  
  <path d="M260.266667 307.2c6.4 0 12.8-2.133333 14.933333-6.4 4.266667-4.266667 6.4-8.533333 6.4-14.933333 0-12.8-10.666667-21.333333-21.333333-21.333334-4.266667 0-8.533333 2.133333-12.8 4.266667-2.133333 0-2.133333 2.133333-4.266667 2.133333-2.133333 2.133333-2.133333 2.133333-2.133333 4.266667-2.133333 4.266667-4.266667 6.4-4.266667 12.8 0 8.533333 10.666667 19.2 23.466667 19.2z" fill="#00bebd" p-id="75614"/>  
  <path d="M411.733333 232.533333v206.933334H200.533333c-44.8-2.133333-81.066667-40.533333-81.066666-85.333334s36.266667-83.2 81.066666-85.333333h4.266667c21.333333 0 42.666667 8.533333 57.6 21.333333-12.8-14.933333-21.333333-34.133333-21.333333-57.6v-4.266666c2.133333-44.8 40.533333-81.066667 85.333333-81.066667s83.2 36.266667 85.333333 81.066667v4.266666z" fill="#00bebd" p-id="75615"/>  
  <path d="M433.066667 460.8h-234.666667c-55.466667-4.266667-100.266667-49.066667-100.266667-106.666667s44.8-102.4 100.266667-106.666666h21.333333v-14.933334-6.4c4.266667-55.466667 49.066667-100.266667 106.666667-100.266666s104.533333 44.8 106.666667 100.266666v234.666667z m-228.266667-170.666667h-4.266667c-34.133333 2.133333-59.733333 29.866667-59.733333 64s25.6 61.866667 59.733333 64H390.4v-185.6-4.266666c-2.133333-34.133333-29.866667-59.733333-64-59.733334s-61.866667 25.6-64 59.733334v4.266666c0 14.933333 6.4 32 17.066667 42.666667l-29.866667 29.866667c-12.8-10.666667-29.866667-14.933333-44.8-14.933334z" fill="#00bebd" p-id="75616"/>  
  <path d="M612.266667 791.466667v-206.933334H823.466667c44.8 2.133333 81.066667 40.533333 81.066666 85.333334s-36.266667 83.2-81.066666 85.333333h-4.266667c-21.333333 0-42.666667-8.533333-57.6-21.333333 12.8 14.933333 21.333333 34.133333 21.333333 57.6v4.266666c-2.133333 44.8-40.533333 81.066667-85.333333 81.066667s-83.2-36.266667-85.333333-81.066667v-4.266666z" fill="#00bebd" p-id="75617"/>  
  <path d="M697.6 898.133333c-57.6 0-104.533333-44.8-106.666667-100.266666v-234.666667h234.666667c55.466667 4.266667 100.266667 49.066667 100.266667 106.666667s-44.8 102.4-100.266667 106.666666h-21.333333v21.333334c-2.133333 55.466667-49.066667 100.266667-106.666667 100.266666z m-64-292.266666V795.733333c2.133333 34.133333 29.866667 59.733333 64 59.733334s61.866667-25.6 64-59.733334v-4.266666c0-14.933333-6.4-32-17.066667-42.666667l29.866667-29.866667c12.8 10.666667 29.866667 17.066667 46.933333 17.066667 34.133333-2.133333 59.733333-29.866667 59.733334-64s-25.6-61.866667-59.733334-64H633.6z" fill="#00bebd" p-id="75618"/>  
  <path d="M411.733333 791.466667v-206.933334H200.533333c-44.8 2.133333-81.066667 40.533333-81.066666 85.333334s36.266667 83.2 81.066666 85.333333h4.266667c21.333333 0 42.666667-8.533333 57.6-21.333333-12.8 14.933333-21.333333 34.133333-21.333333 57.6v4.266666c2.133333 44.8 40.533333 81.066667 85.333333 81.066667s83.2-36.266667 85.333333-81.066667v-4.266666z" fill="#00bebd" p-id="75619"/>  
  <path d="M326.4 898.133333c-57.6 0-102.4-44.8-106.666667-100.266666v-6.4-14.933334c-6.4 0-14.933333 2.133333-21.333333 0-55.466667-4.266667-100.266667-49.066667-100.266667-106.666666s44.8-104.533333 100.266667-106.666667h234.666667v234.666667c-4.266667 55.466667-51.2 100.266667-106.666667 100.266666z m-78.933333-179.2l29.866666 29.866667c-10.666667 12.8-17.066667 27.733333-17.066666 42.666667v4.266666c2.133333 34.133333 29.866667 59.733333 64 59.733334s61.866667-25.6 64-59.733334V605.866667H200.533333c-34.133333 2.133333-59.733333 29.866667-59.733333 64s25.6 61.866667 59.733333 64h4.266667c14.933333 0 32-4.266667 42.666667-14.933334z" fill="#00bebd" p-id="75620"/>  
  <path d="M612.266667 232.533333v206.933334H823.466667c44.8-2.133333 81.066667-40.533333 81.066666-85.333334s-36.266667-83.2-81.066666-85.333333h-4.266667c-21.333333 0-42.666667 8.533333-57.6 21.333333 12.8-14.933333 21.333333-34.133333 21.333333-57.6v-4.266666c-2.133333-44.8-40.533333-81.066667-85.333333-81.066667s-83.2 36.266667-85.333333 81.066667v4.266666z" fill="#00bebd" p-id="75621"/>  
  <path d="M819.2 460.8H590.933333V232.533333v-6.4c4.266667-55.466667 49.066667-100.266667 106.666667-100.266666s102.4 44.8 106.666667 100.266666v21.333334c6.4 0 14.933333-2.133333 21.333333 0 55.466667 4.266667 100.266667 49.066667 100.266667 106.666666s-44.8 102.4-100.266667 106.666667h-6.4z m-185.6-42.666667H823.466667c34.133333-2.133333 59.733333-29.866667 59.733333-64s-25.6-61.866667-59.733333-64h-4.266667c-14.933333 0-32 6.4-42.666667 17.066667L746.666667 275.2c10.666667-12.8 17.066667-27.733333 17.066666-42.666667v-4.266666c-2.133333-34.133333-29.866667-59.733333-64-59.733334s-61.866667 25.6-64 59.733334V418.133333z" fill="#00bebd" p-id="75622"/> 
</svg>
