<svg xmlns="http://www.w3.org/2000/svg" t="1710841093315" class="icon" viewBox="0 0 1024 1024" version="1.1" p-id="28208" width="14" height="14">  
  <path d="M798.8 339.2c0 124-214 414-270 489.6-7.6 8.8-20.8 8.8-28 0-58-75.6-272-365.2-272-489.6C228.4 196.8 356 80 513.6 80c157.6 0 285.2 116.8 285.2 259.2z m0 0" fill="#B3B3B3" p-id="28209"/>  
  <path d="M512 340m-120 0a120 120 0 1 0 240 0 120 120 0 1 0-240 0Z" fill="#FFFFFF" p-id="28210"/>  
  <path d="M665.2 741.6c-12.8 16-23.6 31.6-36.4 44.4 131.2 8 159.6 34.8 166 49.2-6.4 16-94.8 53.6-270.4 53.6-175.6 1.6-264-38-268.8-52.4 4.8-12.8 25.2-38 145.6-47.6-11.2-12.8-23.6-28.4-36.4-44.4-98 11.2-156.8 34.8-156.8 90 0 80.8 199.2 101.2 318 101.2 118.8 0 318-22 318-101.2 0-58-72.8-83.6-178.8-92.8z m0 0" fill="#B3B3B3" p-id="28211"/> 
</svg>
