<svg
                        t="1710907294351"
                        class="icon"
                        viewBox="0 0 1024 1024"
                        version="1.1"
                        xmlns="http://www.w3.org/2000/svg"
                        p-id="24728"
                        width="16"
                        height="16"
                    >
                        <path
                            d="M512 0c282.760533 0 512 229.239467 512 512 0 282.760533-229.239467 512-512 512-282.760533 0-512-229.239467-512-512C0 229.239467 229.239467 0 512 0z m87.381333 306.858667a51.2 51.2 0 0 0-72.362666 0l-168.96 168.96-3.345067 3.618133a51.2 51.2 0 0 0 3.345067 68.778667l168.96 168.96 3.618133 3.310933a51.2 51.2 0 0 0 68.778667-3.345067l3.310933-3.652266a51.2 51.2 0 0 0-3.310933-68.744534L466.602667 512l132.778666-132.778667 3.310934-3.618133a51.2 51.2 0 0 0-3.310934-68.744533z"
                            fill="#00bebd"
                            p-id="24729"
                        ></path>
                    </svg>
