<svg width="16" height="16">
    <path
                            id="icon"
                            fill="#fff"
                            fill-rule="evenodd"
                            d="M8.188 3.745L9.531 5.09l.997-.998-1.349-1.356-.99 1.01zm.401 2.287L7.255 4.697 2.688 9.353v.002l1.29 1.29h.002l4.61-4.613zm3.12-1.207l.004.004L4.543 12H2a.667.667 0 0 1-.667-.667V8.791L8.26 1.81l-.007-.007.47-.47a.667.667 0 0 1 .944.002l2.29 2.301a.667.667 0 0 1-.002.942l-.246.246zM1.667 13.333h12.666c.184 0 .334.15.334.334v.666c0 .184-.15.334-.334.334H1.667a.333.333 0 0 1-.334-.334v-.666c0-.184.15-.334.334-.334z"
                        ></path>
</svg>
